<?xml version="1.0" encoding="UTF-8"?>
<!-- Generated by Pixelmator Pro 3.4.2 -->
<svg width="220" height="43" viewBox="0 0 220 43" xmlns="http://www.w3.org/2000/svg">
    <path id="Rounded-Rectangle" fill="#e04e4e" fill-rule="evenodd" stroke="none" d="M 0 39 C 0 41.209141 1.790861 43 4 43 L 38 43 C 40.209141 43 42 41.209141 42 39 L 42 4 C 42 1.790859 40.209141 0 38 0 L 4 0 C 1.790861 0 0 1.790859 0 4 Z"/>
    <path id="Star" fill="#ffffff" fill-rule="evenodd" stroke="none" d="M 20.5 10 L 16.849854 16.476006 L 9.56285 17.946304 L 14.593939 23.418995 L 13.740469 30.803696 L 20.5 27.709999 L 27.259531 30.803696 L 26.406061 23.418995 L 31.437149 17.946304 L 24.150146 16.476006 Z"/>
    <path id="Cht-lng---Uy-tn---Chuyn-nghip" fill="#172944" fill-rule="evenodd" stroke="none" d="M 218.568359 34.338867 C 218.568359 33.928711 218.474777 33.565758 218.287598 33.25 C 218.100418 32.934242 217.796875 32.776367 217.376953 32.776367 C 216.872391 32.776367 216.525711 33.015621 216.336914 33.494141 C 216.239258 33.748047 216.19043 34.070313 216.19043 34.460938 C 216.19043 35.07943 216.354813 35.513996 216.683594 35.764648 C 216.878906 35.911133 217.110031 35.984375 217.376953 35.984375 C 217.764328 35.984375 218.059738 35.834637 218.263184 35.535156 C 218.466629 35.235676 218.568359 34.836918 218.568359 34.338867 Z M 217.777344 31.560547 C 218.399094 31.560547 218.925613 31.790037 219.356934 32.249023 C 219.788254 32.708008 220.003906 33.381832 220.003906 34.270508 C 220.003906 35.208012 219.793137 35.922523 219.371582 36.414063 C 218.950027 36.905602 218.407227 37.151367 217.743164 37.151367 C 217.319992 37.151367 216.96843 37.045574 216.688477 36.833984 C 216.535477 36.716797 216.385742 36.545898 216.239258 36.321289 L 216.239258 39.094727 L 214.862305 39.094727 L 214.862305 31.677734 L 216.195313 31.677734 L 216.195313 32.463867 C 216.345047 32.232746 216.504562 32.050457 216.673828 31.916992 C 216.983078 31.679359 217.350906 31.560547 217.777344 31.560547 Z M 211.439453 32.683594 C 211.117188 32.683594 210.867355 32.784504 210.689941 32.986328 C 210.512527 33.188152 210.401047 33.461586 210.355469 33.806641 L 212.518555 33.806641 C 212.495773 33.438801 212.384277 33.159668 212.184082 32.969238 C 211.983887 32.778809 211.735672 32.683594 211.439453 32.683594 Z M 211.439453 31.536133 C 211.882156 31.536133 212.28093 31.619141 212.635742 31.785156 C 212.990555 31.951172 213.283524 32.213215 213.514648 32.571289 C 213.722977 32.887047 213.858078 33.253254 213.919922 33.669922 C 213.955734 33.914063 213.970383 34.265625 213.963867 34.724609 L 210.321289 34.724609 C 210.34082 35.258465 210.508469 35.632813 210.824219 35.847656 C 211.016281 35.981121 211.247391 36.047852 211.517578 36.047852 C 211.804031 36.047852 212.036789 35.966473 212.21582 35.803711 C 212.313477 35.71582 212.399734 35.59375 212.474609 35.4375 L 213.895508 35.4375 C 213.859695 35.753258 213.695313 36.073891 213.402344 36.399414 C 212.946609 36.916996 212.308594 37.175781 211.488281 37.175781 C 210.811188 37.175781 210.213867 36.957684 209.696289 36.521484 C 209.178711 36.085285 208.919922 35.375656 208.919922 34.392578 C 208.919922 33.471352 209.153488 32.764977 209.620605 32.273438 C 210.087723 31.781898 210.694 31.536133 211.439453 31.536133 Z M 213.216797 31.003906 L 212.083984 31.003906 L 211.449219 30.183594 L 210.80957 31.003906 L 209.676758 31.003906 L 210.824219 29.543945 L 212.074219 29.543945 Z M 210.80957 37.512695 L 212.079102 37.512695 L 212.079102 38.669922 L 210.80957 38.669922 Z M 207.992188 31.042969 L 206.581055 31.042969 L 206.581055 29.758789 L 207.992188 29.758789 Z M 206.581055 31.677734 L 207.992188 31.677734 L 207.992188 37 L 206.581055 37 Z M 203.387695 31.541016 C 203.716476 31.541016 204.015137 31.59798 204.283691 31.711914 C 204.552246 31.825848 204.772781 32 204.945313 32.234375 C 205.091797 32.432945 205.18132 32.637207 205.213867 32.847168 C 205.246414 33.057129 205.262695 33.399738 205.262695 33.875 L 205.262695 37 L 203.841797 37 L 203.841797 33.762695 C 203.841797 33.476234 203.792969 33.245117 203.695313 33.069336 C 203.568359 32.821938 203.327469 32.698242 202.972656 32.698242 C 202.604813 32.698242 202.325684 32.821125 202.135254 33.066895 C 201.944824 33.312664 201.849609 33.66341 201.849609 34.119141 L 201.849609 37 L 200.462891 37 L 200.462891 29.827148 L 201.849609 29.827148 L 201.849609 32.371094 C 202.051437 32.061848 202.284988 31.846191 202.550293 31.724121 C 202.815598 31.602051 203.094727 31.541016 203.387695 31.541016 Z M 196.629883 35.857422 C 196.955399 35.857422 197.230469 35.734539 197.455078 35.48877 C 197.679688 35.243 197.791992 34.851566 197.791992 34.314453 C 197.791992 33.809895 197.685379 33.425781 197.472168 33.162109 C 197.258957 32.898438 196.973312 32.766602 196.615234 32.766602 C 196.126953 32.766602 195.790039 32.996094 195.604492 33.455078 C 195.506836 33.699219 195.458008 34.000324 195.458008 34.358398 C 195.458008 34.667645 195.510086 34.942707 195.614258 35.183594 C 195.803055 35.632816 196.141602 35.857422 196.629883 35.857422 Z M 196.283203 31.550781 C 196.550125 31.550781 196.782883 31.591471 196.981445 31.672852 C 197.319992 31.812826 197.59343 32.069984 197.801758 32.444336 L 197.801758 31.677734 L 199.154297 31.677734 L 199.154297 36.726563 C 199.154297 37.413414 199.038742 37.930988 198.807617 38.279297 C 198.410477 38.878258 197.648773 39.177734 196.522461 39.177734 C 195.842117 39.177734 195.287109 39.044273 194.857422 38.777344 C 194.427734 38.510414 194.190109 38.111656 194.144531 37.581055 L 195.658203 37.581055 C 195.697266 37.743816 195.760742 37.861004 195.848633 37.932617 C 195.998367 38.05957 196.250656 38.123047 196.605469 38.123047 C 197.106766 38.123047 197.442062 37.955406 197.611328 37.620117 C 197.722 37.405273 197.777344 37.043949 197.777344 36.536133 L 197.777344 36.194336 C 197.643875 36.422203 197.500656 36.593098 197.347656 36.707031 C 197.070969 36.918621 196.711258 37.024414 196.268555 37.024414 C 195.584961 37.024414 195.038895 36.784344 194.630371 36.304199 C 194.221848 35.824055 194.017578 35.173832 194.017578 34.353516 C 194.017578 33.562496 194.214523 32.897625 194.608398 32.358887 C 195.002274 31.820148 195.560547 31.550781 196.283203 31.550781 Z M 191.185547 31.550781 C 191.735687 31.550781 192.185715 31.694822 192.535645 31.98291 C 192.885574 32.270996 193.060547 32.748695 193.060547 33.416016 L 193.060547 37 L 191.634766 37 L 191.634766 33.762695 C 191.634766 33.482746 191.597336 33.267906 191.522461 33.118164 C 191.385742 32.844727 191.12532 32.708008 190.741211 32.708008 C 190.269211 32.708008 189.945313 32.908203 189.769531 33.308594 C 189.678391 33.520184 189.632813 33.790363 189.632813 34.119141 L 189.632813 37 L 188.246094 37 L 188.246094 31.6875 L 189.588867 31.6875 L 189.588867 32.463867 C 189.767899 32.19043 189.93718 31.99349 190.09668 31.873047 C 190.383133 31.658203 190.746094 31.550781 191.185547 31.550781 Z M 182.298828 31.550781 C 182.848969 31.550781 183.298996 31.694822 183.648926 31.98291 C 183.998856 32.270996 184.173828 32.748695 184.173828 33.416016 L 184.173828 37 L 182.748047 37 L 182.748047 33.762695 C 182.748047 33.482746 182.710617 33.267906 182.635742 33.118164 C 182.499023 32.844727 182.238602 32.708008 181.854492 32.708008 C 181.382492 32.708008 181.058594 32.908203 180.882813 33.308594 C 180.791672 33.520184 180.746094 33.790363 180.746094 34.119141 L 180.746094 37 L 179.359375 37 L 179.359375 31.6875 L 180.702148 31.6875 L 180.702148 32.463867 C 180.88118 32.19043 181.050461 31.99349 181.209961 31.873047 C 181.496414 31.658203 181.859375 31.550781 182.298828 31.550781 Z M 175.887695 32.683594 C 175.56543 32.683594 175.315598 32.784504 175.138184 32.986328 C 174.96077 33.188152 174.849289 33.461586 174.803711 33.806641 L 176.966797 33.806641 C 176.944016 33.438801 176.83252 33.159668 176.632324 32.969238 C 176.432129 32.778809 176.183914 32.683594 175.887695 32.683594 Z M 175.887695 31.536133 C 176.330399 31.536133 176.729172 31.619141 177.083984 31.785156 C 177.438797 31.951172 177.731766 32.213215 177.962891 32.571289 C 178.171219 32.887047 178.30632 33.253254 178.368164 33.669922 C 178.403976 33.914063 178.418625 34.265625 178.412109 34.724609 L 174.769531 34.724609 C 174.789063 35.258465 174.956711 35.632813 175.272461 35.847656 C 175.464523 35.981121 175.695633 36.047852 175.96582 36.047852 C 176.252274 36.047852 176.485031 35.966473 176.664063 35.803711 C 176.761719 35.71582 176.847977 35.59375 176.922852 35.4375 L 178.34375 35.4375 C 178.307938 35.753258 178.143555 36.073891 177.850586 36.399414 C 177.394852 36.916996 176.756836 37.175781 175.936523 37.175781 C 175.25943 37.175781 174.662109 36.957684 174.144531 36.521484 C 173.626953 36.085285 173.368164 35.375656 173.368164 34.392578 C 173.368164 33.471352 173.60173 32.764977 174.068848 32.273438 C 174.535965 31.781898 175.142242 31.536133 175.887695 31.536133 Z M 177.75293 30.959961 L 176.620117 30.959961 L 175.985352 30.139648 L 175.345703 30.959961 L 174.212891 30.959961 L 175.360352 29.5 L 176.610352 29.5 Z M 168.441406 38.020508 L 168.617188 38.030273 C 168.753906 38.036785 168.884109 38.031902 169.007813 38.015625 C 169.131516 37.999348 169.235672 37.961914 169.320313 37.90332 C 169.401688 37.84798 169.477371 37.732422 169.547363 37.556641 C 169.617355 37.380859 169.645828 37.273438 169.632813 37.234375 L 167.679688 31.677734 L 169.227539 31.677734 L 170.389648 35.603516 L 171.488281 31.677734 L 172.967773 31.677734 L 171.141602 36.912109 C 170.790039 37.92123 170.511719 38.547035 170.306641 38.789551 C 170.101563 39.032066 169.691406 39.15332 169.076172 39.15332 C 168.952469 39.15332 168.853195 39.152508 168.77832 39.150879 C 168.703445 39.14925 168.591141 39.143555 168.441406 39.133789 Z M 163.504883 31.677734 L 163.504883 34.885742 C 163.504883 35.188477 163.540695 35.41634 163.612305 35.569336 C 163.739258 35.83952 163.988281 35.974609 164.359375 35.974609 C 164.834641 35.974609 165.160156 35.782555 165.335938 35.398438 C 165.427078 35.190102 165.472656 34.915039 165.472656 34.573242 L 165.472656 31.677734 L 166.883789 31.677734 L 166.883789 37 L 165.53125 37 L 165.53125 36.248047 C 165.518234 36.264324 165.485672 36.313148 165.433594 36.394531 C 165.381516 36.475914 165.319656 36.547527 165.248047 36.609375 C 165.029953 36.804688 164.819168 36.938152 164.615723 37.009766 C 164.412277 37.081379 164.173828 37.117188 163.900391 37.117188 C 163.112625 37.117188 162.582031 36.833988 162.308594 36.267578 C 162.155594 35.955078 162.079102 35.494469 162.079102 34.885742 L 162.079102 31.677734 Z M 158.944336 31.541016 C 159.273117 31.541016 159.571777 31.59798 159.840332 31.711914 C 160.108887 31.825848 160.329422 32 160.501953 32.234375 C 160.648438 32.432945 160.737961 32.637207 160.770508 32.847168 C 160.803055 33.057129 160.819336 33.399738 160.819336 33.875 L 160.819336 37 L 159.398438 37 L 159.398438 33.762695 C 159.398438 33.476234 159.349609 33.245117 159.251953 33.069336 C 159.125 32.821938 158.884109 32.698242 158.529297 32.698242 C 158.161453 32.698242 157.882324 32.821125 157.691895 33.066895 C 157.501465 33.312664 157.40625 33.66341 157.40625 34.119141 L 157.40625 37 L 156.019531 37 L 156.019531 29.827148 L 157.40625 29.827148 L 157.40625 32.371094 C 157.608078 32.061848 157.841629 31.846191 158.106934 31.724121 C 158.372238 31.602051 158.651367 31.541016 158.944336 31.541016 Z M 148.587891 33.459961 C 148.587891 32.203445 148.924805 31.235029 149.598633 30.554688 C 150.18457 29.962236 150.930008 29.666016 151.834961 29.666016 C 153.045898 29.666016 153.931305 30.063148 154.491211 30.857422 C 154.800461 31.303387 154.966476 31.750975 154.989258 32.200195 L 153.485352 32.200195 C 153.387695 31.855141 153.262375 31.594727 153.109375 31.418945 C 152.835938 31.106443 152.430664 30.950195 151.893555 30.950195 C 151.34668 30.950195 150.915359 31.170734 150.599609 31.611816 C 150.283859 32.052898 150.125977 32.677078 150.125977 33.484375 C 150.125977 34.291672 150.292801 34.89632 150.626465 35.29834 C 150.960129 35.700359 151.384109 35.901367 151.898438 35.901367 C 152.425781 35.901367 152.827805 35.728844 153.104492 35.383789 C 153.257492 35.198242 153.384445 34.919922 153.485352 34.548828 L 154.974609 34.548828 C 154.844406 35.333336 154.511566 35.971352 153.976074 36.462891 C 153.440582 36.95443 152.754562 37.200195 151.917969 37.200195 C 150.882813 37.200195 150.069016 36.868168 149.476563 36.204102 C 148.884109 35.536781 148.587891 34.622078 148.587891 33.459961 Z M 142.259766 33.552734 L 145.0625 33.552734 L 145.0625 34.871094 L 142.259766 34.871094 Z M 136.742188 31.550781 C 137.292328 31.550781 137.742355 31.694822 138.092285 31.98291 C 138.442215 32.270996 138.617188 32.748695 138.617188 33.416016 L 138.617188 37 L 137.191406 37 L 137.191406 33.762695 C 137.191406 33.482746 137.153976 33.267906 137.079102 33.118164 C 136.942383 32.844727 136.681961 32.708008 136.297852 32.708008 C 135.825851 32.708008 135.501953 32.908203 135.326172 33.308594 C 135.235031 33.520184 135.189453 33.790363 135.189453 34.119141 L 135.189453 37 L 133.802734 37 L 133.802734 31.6875 L 135.145508 31.6875 L 135.145508 32.463867 C 135.324539 32.19043 135.49382 31.99349 135.65332 31.873047 C 135.939774 31.658203 136.302734 31.550781 136.742188 31.550781 Z M 131.03418 31.677734 L 132.445313 31.677734 L 132.445313 37 L 131.03418 37 Z M 133.431641 29.5 L 131.947266 30.959961 L 130.941406 30.959961 L 131.878906 29.5 Z M 127.137695 32.717773 L 127.137695 31.726563 L 127.879883 31.726563 L 127.879883 30.242188 L 129.256836 30.242188 L 129.256836 31.726563 L 130.121094 31.726563 L 130.121094 32.717773 L 129.256836 32.717773 L 129.256836 35.530273 C 129.256836 35.748375 129.2845 35.884277 129.339844 35.937988 C 129.395187 35.991699 129.564453 36.018555 129.847656 36.018555 C 129.889969 36.018555 129.934738 36.017742 129.981934 36.016113 C 130.029129 36.014484 130.075516 36.012043 130.121094 36.008789 L 130.121094 37.048828 L 129.461914 37.073242 C 128.804352 37.096027 128.355148 36.982098 128.114258 36.731445 C 127.958008 36.571938 127.879883 36.326172 127.879883 35.994141 L 127.879883 32.717773 Z M 119.55957 38.020508 L 119.735352 38.030273 C 119.87207 38.036785 120.002281 38.031902 120.125977 38.015625 C 120.249672 37.999348 120.353844 37.961914 120.438477 37.90332 C 120.519859 37.84798 120.595543 37.732422 120.665527 37.556641 C 120.735512 37.380859 120.764 37.273438 120.750977 37.234375 L 118.797852 31.677734 L 120.345703 31.677734 L 121.507813 35.603516 L 122.606445 31.677734 L 124.085938 31.677734 L 122.259766 36.912109 C 121.908203 37.92123 121.629883 38.547035 121.424805 38.789551 C 121.219727 39.032066 120.80957 39.15332 120.194336 39.15332 C 120.070641 39.15332 119.971352 39.152508 119.896484 39.150879 C 119.821617 39.14925 119.709312 39.143555 119.55957 39.133789 Z M 112.235352 29.802734 L 113.763672 29.802734 L 113.763672 34.226563 C 113.763672 34.721355 113.822266 35.08268 113.939453 35.310547 C 114.121742 35.714195 114.518875 35.916016 115.130859 35.916016 C 115.739586 35.916016 116.135094 35.714195 116.317383 35.310547 C 116.43457 35.08268 116.493164 34.721355 116.493164 34.226563 L 116.493164 29.802734 L 118.021484 29.802734 L 118.021484 34.226563 C 118.021484 34.991539 117.902672 35.587238 117.665039 36.013672 C 117.222328 36.794926 116.377609 37.185547 115.130859 37.185547 C 113.884109 37.185547 113.037766 36.794926 112.591797 36.013672 C 112.354164 35.587238 112.235352 34.991539 112.235352 34.226563 Z M 105.594727 33.552734 L 108.397461 33.552734 L 108.397461 34.871094 L 105.594727 34.871094 Z M 99.413086 35.857422 C 99.738609 35.857422 100.013672 35.734539 100.238281 35.48877 C 100.462891 35.243 100.575195 34.851566 100.575195 34.314453 C 100.575195 33.809895 100.46859 33.425781 100.255371 33.162109 C 100.042152 32.898438 99.756516 32.766602 99.398438 32.766602 C 98.910156 32.766602 98.573242 32.996094 98.387695 33.455078 C 98.290039 33.699219 98.241211 34.000324 98.241211 34.358398 C 98.241211 34.667645 98.293297 34.942707 98.397461 35.183594 C 98.586266 35.632816 98.924805 35.857422 99.413086 35.857422 Z M 99.066406 31.550781 C 99.333336 31.550781 99.566078 31.591471 99.764648 31.672852 C 100.103195 31.812826 100.376625 32.069984 100.584961 32.444336 L 100.584961 31.677734 L 101.9375 31.677734 L 101.9375 36.726563 C 101.9375 37.413414 101.821938 37.930988 101.59082 38.279297 C 101.19368 38.878258 100.431969 39.177734 99.305664 39.177734 C 98.62532 39.177734 98.070313 39.044273 97.640625 38.777344 C 97.210938 38.510414 96.973305 38.111656 96.927734 37.581055 L 98.441406 37.581055 C 98.480469 37.743816 98.543945 37.861004 98.631836 37.932617 C 98.781578 38.05957 99.033852 38.123047 99.388672 38.123047 C 99.889977 38.123047 100.225258 37.955406 100.394531 37.620117 C 100.505211 37.405273 100.560547 37.043949 100.560547 36.536133 L 100.560547 36.194336 C 100.427086 36.422203 100.283852 36.593098 100.130859 36.707031 C 99.854164 36.918621 99.494469 37.024414 99.051758 37.024414 C 98.368164 37.024414 97.822105 36.784344 97.413574 36.304199 C 97.005043 35.824055 96.800781 35.173832 96.800781 34.353516 C 96.800781 33.562496 96.997719 32.897625 97.391602 32.358887 C 97.785484 31.820148 98.34375 31.550781 99.066406 31.550781 Z M 93.96875 31.550781 C 94.518883 31.550781 94.96891 31.694822 95.318848 31.98291 C 95.668785 32.270996 95.84375 32.748695 95.84375 33.416016 L 95.84375 37 L 94.417969 37 L 94.417969 33.762695 C 94.417969 33.482746 94.380531 33.267906 94.305664 33.118164 C 94.168945 32.844727 93.908531 32.708008 93.524414 32.708008 C 93.052406 32.708008 92.728516 32.908203 92.552734 33.308594 C 92.461586 33.520184 92.416016 33.790363 92.416016 34.119141 L 92.416016 37 L 91.029297 37 L 91.029297 31.6875 L 92.37207 31.6875 L 92.37207 32.463867 C 92.551109 32.19043 92.720375 31.99349 92.879883 31.873047 C 93.166344 31.658203 93.529297 31.550781 93.96875 31.550781 Z M 85.462891 37.185547 C 84.548172 37.185547 83.866211 36.908043 83.416992 36.353027 C 82.967773 35.798012 82.743164 35.129887 82.743164 34.348633 C 82.743164 33.580399 82.967773 32.914719 83.416992 32.351563 C 83.866211 31.788408 84.548172 31.506836 85.462891 31.506836 C 86.377609 31.506836 87.05957 31.788408 87.508789 32.351563 C 87.580406 32.442711 87.647133 32.537109 87.708984 32.634766 C 87.731773 32.63802 87.754555 32.639648 87.777344 32.639648 C 88.001953 32.662434 88.262367 32.600586 88.558594 32.454102 L 88.133789 31.72168 L 89.393555 30.994141 L 90.145508 32.297852 L 89.056641 32.927734 C 88.864586 33.038414 88.649742 33.129555 88.412109 33.201172 C 88.275391 33.240234 88.140297 33.259766 88.006836 33.259766 C 88.124023 33.598309 88.182617 33.961262 88.182617 34.348633 C 88.182617 35.129887 87.958008 35.798012 87.508789 36.353027 C 87.05957 36.908043 86.377609 37.185547 85.462891 37.185547 Z M 86.722656 34.348633 C 86.722656 33.814777 86.613609 33.403809 86.395508 33.115723 C 86.177406 32.827637 85.864914 32.683594 85.458008 32.683594 C 85.051102 32.683594 84.737793 32.827637 84.518066 33.115723 C 84.29834 33.403809 84.188477 33.814777 84.188477 34.348633 C 84.188477 34.882488 84.29834 35.29427 84.518066 35.583984 C 84.737793 35.873699 85.051102 36.018555 85.458008 36.018555 C 85.864914 36.018555 86.177406 35.873699 86.395508 35.583984 C 86.613609 35.29427 86.722656 34.882488 86.722656 34.348633 Z M 84.955078 37.786133 L 86.224609 37.786133 L 86.224609 38.943359 L 84.955078 38.943359 Z M 76.405273 31.677734 L 76.405273 34.885742 C 76.405273 35.188477 76.441078 35.41634 76.512695 35.569336 C 76.639648 35.83952 76.888672 35.974609 77.259766 35.974609 C 77.735031 35.974609 78.060547 35.782555 78.236328 35.398438 C 78.327477 35.190102 78.373047 34.915039 78.373047 34.573242 L 78.373047 31.677734 L 79.78418 31.677734 L 79.78418 32.390625 C 79.797203 32.393879 79.810219 32.395508 79.823242 32.395508 C 80.047852 32.418293 80.308266 32.356445 80.604492 32.209961 L 80.179688 31.477539 L 81.439453 30.75 L 82.191406 32.053711 L 81.102539 32.683594 C 80.910484 32.794273 80.695641 32.885414 80.458008 32.957031 C 80.230141 33.022137 80.005531 33.033531 79.78418 32.991211 L 79.78418 37 L 78.431641 37 L 78.431641 36.248047 C 78.418617 36.264324 78.38607 36.313148 78.333984 36.394531 C 78.281898 36.475914 78.220055 36.547527 78.148438 36.609375 C 77.930336 36.804688 77.719566 36.938152 77.516113 37.009766 C 77.31266 37.081379 77.074219 37.117188 76.800781 37.117188 C 76.013016 37.117188 75.482422 36.833988 75.208984 36.267578 C 75.055992 35.955078 74.979492 35.494469 74.979492 34.885742 L 74.979492 31.677734 Z M 73.661133 37 L 72.269531 37 L 72.269531 29.802734 L 73.661133 29.802734 Z M 65.584961 32.717773 L 65.584961 31.726563 L 66.327148 31.726563 L 66.327148 30.242188 L 67.704102 30.242188 L 67.704102 31.726563 L 68.568359 31.726563 L 68.568359 32.717773 L 67.704102 32.717773 L 67.704102 35.530273 C 67.704102 35.748375 67.731773 35.884277 67.787109 35.937988 C 67.842445 35.991699 68.011719 36.018555 68.294922 36.018555 C 68.337242 36.018555 68.381996 36.017742 68.429199 36.016113 C 68.476402 36.014484 68.522789 36.012043 68.568359 36.008789 L 68.568359 37.048828 L 67.90918 37.073242 C 67.251625 37.096027 66.802406 36.982098 66.561523 36.731445 C 66.405273 36.571938 66.327148 36.326172 66.327148 35.994141 L 66.327148 32.717773 Z M 62.914063 34.412109 C 62.826172 34.467449 62.737469 34.512207 62.647949 34.546387 C 62.55843 34.580566 62.435547 34.612305 62.279297 34.641602 L 61.966797 34.700195 C 61.673828 34.752281 61.463867 34.815754 61.336914 34.890625 C 61.12207 35.017578 61.014648 35.214516 61.014648 35.481445 C 61.014648 35.719078 61.080566 35.890785 61.212402 35.996582 C 61.344238 36.102379 61.504555 36.155273 61.693359 36.155273 C 61.99284 36.155273 62.268715 36.067383 62.520996 35.891602 C 62.773277 35.71582 62.904297 35.395184 62.914063 34.929688 Z M 62.069336 33.762695 C 62.3265 33.730141 62.510418 33.689453 62.621094 33.640625 C 62.819664 33.555988 62.918945 33.424156 62.918945 33.245117 C 62.918945 33.027016 62.843262 32.876465 62.691895 32.793457 C 62.540527 32.710449 62.318359 32.668945 62.025391 32.668945 C 61.696613 32.668945 61.463867 32.750324 61.327148 32.913086 C 61.229492 33.033531 61.164387 33.196289 61.131836 33.401367 L 59.789063 33.401367 C 59.818359 32.935871 59.948566 32.553387 60.179688 32.253906 C 60.547527 31.785154 61.179031 31.550781 62.074219 31.550781 C 62.656902 31.550781 63.174477 31.66634 63.626953 31.897461 C 64.07943 32.128582 64.305664 32.564774 64.305664 33.206055 L 64.305664 35.647461 C 64.305664 35.816734 64.308922 36.021809 64.31543 36.262695 C 64.325195 36.444988 64.352867 36.568684 64.398438 36.633789 C 64.444008 36.698895 64.512367 36.752605 64.603516 36.794922 L 64.603516 37 L 63.089844 37 C 63.047527 36.892578 63.01823 36.791668 63.001953 36.697266 C 62.985676 36.602863 62.972656 36.495445 62.962891 36.375 C 62.770832 36.583336 62.54948 36.760742 62.298828 36.907227 C 61.999348 37.079754 61.660809 37.166016 61.283203 37.166016 C 60.80143 37.166016 60.403484 37.028484 60.089355 36.753418 C 59.775227 36.478352 59.618164 36.088543 59.618164 35.583984 C 59.618164 34.929684 59.870441 34.456055 60.375 34.163086 C 60.651695 34.003578 61.05859 33.889648 61.595703 33.821289 Z M 63.851563 31.101563 L 62.71875 31.101563 L 62.083984 30.28125 L 61.444336 31.101563 L 60.311523 31.101563 L 61.458984 29.641602 L 62.708984 29.641602 Z M 65.477539 28.655273 L 63.993164 30.115234 L 62.987305 30.115234 L 63.924805 28.655273 Z M 56.805664 31.541016 C 57.134441 31.541016 57.433105 31.59798 57.70166 31.711914 C 57.970215 31.825848 58.190754 32 58.363281 32.234375 C 58.509766 32.432945 58.599285 32.637207 58.631836 32.847168 C 58.664387 33.057129 58.680664 33.399738 58.680664 33.875 L 58.680664 37 L 57.259766 37 L 57.259766 33.762695 C 57.259766 33.476234 57.210938 33.245117 57.113281 33.069336 C 56.986328 32.821938 56.745445 32.698242 56.390625 32.698242 C 56.022785 32.698242 55.743652 32.821125 55.553223 33.066895 C 55.362793 33.312664 55.267578 33.66341 55.267578 34.119141 L 55.267578 37 L 53.880859 37 L 53.880859 29.827148 L 55.267578 29.827148 L 55.267578 32.371094 C 55.469402 32.061848 55.702961 31.846191 55.968262 31.724121 C 56.233562 31.602051 56.512695 31.541016 56.805664 31.541016 Z M 46.449219 33.459961 C 46.449219 32.203445 46.786129 31.235029 47.459961 30.554688 C 48.045902 29.962236 48.791336 29.666016 49.696289 29.666016 C 50.907234 29.666016 51.792641 30.063148 52.352539 30.857422 C 52.661785 31.303387 52.827801 31.750975 52.850586 32.200195 L 51.34668 32.200195 C 51.249023 31.855141 51.123699 31.594727 50.970703 31.418945 C 50.697266 31.106443 50.291996 30.950195 49.754883 30.950195 C 49.208004 30.950195 48.776695 31.170734 48.460938 31.611816 C 48.14518 32.052898 47.987305 32.677078 47.987305 33.484375 C 47.987305 34.291672 48.154133 34.89632 48.487793 35.29834 C 48.821453 35.700359 49.245441 35.901367 49.759766 35.901367 C 50.287113 35.901367 50.689125 35.728844 50.96582 35.383789 C 51.118816 35.198242 51.24577 34.919922 51.34668 34.548828 L 52.835938 34.548828 C 52.705727 35.333336 52.372887 35.971352 51.837402 36.462891 C 51.301918 36.95443 50.615891 37.200195 49.779297 37.200195 C 48.744137 37.200195 47.93034 36.868168 47.337891 36.204102 C 46.745441 35.536781 46.449219 34.622078 46.449219 33.459961 Z"/>
    <g id="Group">
        <path id="PYTHON-VIET-NAM" fill="#e04e4e" fill-rule="evenodd" stroke="none" d="M 193.96666 10.700001 L 196.666672 10.700001 L 200.574997 18.416666 L 204.425003 10.700001 L 207.066666 10.700001 L 207.066666 22 L 204.300003 22 L 204.300003 14.633333 L 200.608337 22 L 199.541672 22 L 195.725006 14.549999 L 195.725006 22 L 193.96666 22 Z M 187.083328 10.466667 L 192.383331 22 L 189.550003 22 L 188.133331 18.916666 L 183.741669 18.916666 L 182.258331 22 L 180.375 22 L 185.883331 10.466667 Z M 184.266663 17.866667 L 187.666672 17.866667 L 185.991669 14.216667 Z M 168.891663 10.700001 L 170.666672 10.700001 L 177.108337 17.883333 L 177.108337 10.700001 L 178.84166 10.700001 L 178.84166 22.166666 L 177.649994 22.166666 L 170.649994 14.233334 L 170.649994 22 L 168.891663 22 Z M 163.574997 10.700001 L 163.574997 11.666666 L 159.666672 11.666666 L 159.666672 22 L 156.899994 22 L 156.899994 11.666666 L 152.983337 11.666666 L 152.983337 10.700001 Z M 152.225006 10.700001 L 152.225006 11.666666 L 146.558334 11.666666 L 146.558334 15.391666 L 151.266663 15.391666 L 151.266663 16.358334 L 146.558334 16.358334 L 146.558334 20.841667 L 152.225006 20.841667 L 152.225006 22 L 143.78334 22 L 143.78334 10.700001 Z M 138.183334 10.700001 L 140.949997 10.700001 L 140.949997 22 L 138.183334 22 Z M 127.683334 10.700001 L 131.416672 18.508333 L 134.883331 10.700001 L 136.65834 10.700001 L 131.574997 22.166666 L 130.28334 22.166666 L 124.816666 10.700001 Z M 109.833336 10.700001 L 111.60833 10.700001 L 118.050003 17.883333 L 118.050003 10.700001 L 119.783333 10.700001 L 119.783333 22.166666 L 118.591667 22.166666 L 111.591667 14.233334 L 111.591667 22 L 109.833336 22 Z M 100.883331 22.25 C 99.972221 22.25 99.122223 22.102779 98.333336 21.808332 C 97.544441 21.513887 96.861115 21.101391 96.283333 20.570833 C 95.705551 20.040276 95.251389 19.409725 94.92083 18.679167 C 94.590279 17.948608 94.425003 17.147226 94.425003 16.275 C 94.425003 15.419439 94.590279 14.634726 94.92083 13.920834 C 95.251389 13.206942 95.705551 12.594446 96.283333 12.083334 C 96.861115 11.57222 97.544441 11.175001 98.333336 10.891666 C 99.122223 10.608334 99.972221 10.466667 100.883331 10.466667 C 101.794449 10.466667 102.643051 10.609722 103.429169 10.895832 C 104.215279 11.181946 104.898605 11.580553 105.479164 12.091667 C 106.059723 12.602779 106.516663 13.212496 106.849998 13.920834 C 107.183334 14.629169 107.349998 15.405552 107.349998 16.25 C 107.349998 16.850002 107.275002 17.415276 107.125 17.945833 C 106.974998 18.476391 106.761116 18.963886 106.48333 19.408333 C 106.205551 19.852779 105.872223 20.249998 105.48333 20.6 C 105.094444 20.950003 104.659721 21.247221 104.179169 21.491667 C 103.698608 21.736113 103.180557 21.923611 102.625 22.054167 C 102.069443 22.184723 101.488892 22.25 100.883331 22.25 Z M 100.883331 21.299999 C 101.433334 21.299999 101.919441 21.173613 102.341667 20.920834 C 102.763893 20.668055 103.116669 20.319447 103.400002 19.875 C 103.683334 19.430553 103.898613 18.901392 104.04583 18.2875 C 104.193054 17.673609 104.26667 17.002781 104.26667 16.275 C 104.26667 15.558331 104.193054 14.902781 104.04583 14.308332 C 103.898613 13.713886 103.683334 13.20278 103.400002 12.775 C 103.116669 12.347219 102.763893 12.013889 102.341667 11.775 C 101.919441 11.53611 101.433334 11.416666 100.883331 11.416666 C 100.327774 11.416666 99.83889 11.53611 99.416664 11.775 C 98.994446 12.013889 98.64167 12.347219 98.35833 12.775 C 98.074997 13.20278 97.861115 13.713886 97.716667 14.308332 C 97.57222 14.902781 97.5 15.558331 97.5 16.275 C 97.5 17.002781 97.57222 17.673609 97.716667 18.2875 C 97.861115 18.901392 98.074997 19.430553 98.35833 19.875 C 98.64167 20.319447 98.994446 20.668055 99.416664 20.920834 C 99.83889 21.173613 100.327774 21.299999 100.883331 21.299999 Z M 84.625 16.616667 L 84.625 22 L 81.849998 22 L 81.849998 10.700001 L 84.625 10.700001 L 84.625 15.65 L 89.166664 15.65 L 89.166664 10.700001 L 91.916664 10.700001 L 91.916664 22 L 89.166664 22 L 89.166664 16.616667 Z M 80.033333 10.700001 L 80.033333 11.666666 L 76.125 11.666666 L 76.125 22 L 73.35833 22 L 73.35833 11.666666 L 69.441666 11.666666 L 69.441666 10.700001 Z M 59.783333 10.700001 L 63.5 15.791666 L 66.991669 10.700001 L 68.866669 10.700001 L 64.449997 17.116667 L 64.449997 22 L 61.674999 22 L 61.674999 17.283333 L 56.883335 10.700001 Z M 47.416668 10.700001 L 51.358334 10.700001 C 51.991669 10.700001 52.584721 10.766666 53.137501 10.900002 C 53.690281 11.033335 54.17083 11.233332 54.579166 11.5 C 54.987503 11.766668 55.308331 12.09861 55.541668 12.495832 C 55.775002 12.893057 55.891666 13.355553 55.891666 13.883333 C 55.891666 14.41667 55.77639 14.881943 55.545834 15.279167 C 55.315277 15.676392 55.009724 16.008331 54.629166 16.275 C 54.248608 16.541668 53.815281 16.740276 53.329166 16.870832 C 52.843052 17.00139 52.344448 17.066668 51.833332 17.066668 L 50.200001 17.066668 L 50.200001 22 L 47.416668 22 Z M 50.200001 16.041666 L 51.108334 16.041666 C 51.425003 16.041666 51.699997 15.984722 51.933334 15.870832 C 52.166668 15.756945 52.361111 15.601389 52.516666 15.404167 C 52.672222 15.206944 52.788887 14.980556 52.866665 14.725 C 52.944447 14.469442 52.983334 14.200001 52.983334 13.916666 C 52.983334 13.577776 52.931946 13.277779 52.829166 13.016666 C 52.726387 12.755554 52.587502 12.534723 52.412498 12.354166 C 52.237499 12.173611 52.031944 12.036112 51.795834 11.941668 C 51.559723 11.847221 51.305557 11.799999 51.033333 11.799999 L 50.200001 11.799999 Z"/>
        <path id="path1" fill="#e04e4e" fill-rule="evenodd" stroke="none" d="M 146.035553 8.244446 L 148.017776 4.951111 L 148.608887 4.951111 L 150.59111 8.244446 L 149.595551 8.244446 L 148.302216 6.075554 L 147.00444 8.244446 Z"/>
        <path id="path2" fill="#e04e4e" fill-rule="evenodd" stroke="none" d="M 146.666107 25.291111 C 146.666107 25.177036 146.6875 25.068056 146.73027 24.964167 C 146.773056 24.860277 146.833145 24.770649 146.910553 24.695278 C 146.987961 24.619907 147.076569 24.559814 147.176392 24.514999 C 147.276199 24.470184 147.385178 24.447779 147.503326 24.447779 C 147.621475 24.447779 147.732498 24.470184 147.836395 24.514999 C 147.940277 24.559814 148.029907 24.619907 148.10527 24.695278 C 148.180649 24.770649 148.240738 24.860277 148.285553 24.964167 C 148.330368 25.068056 148.352783 25.177036 148.352783 25.291111 C 148.352783 25.40926 148.330368 25.519258 148.285553 25.621111 C 148.240738 25.722963 148.180649 25.810555 148.10527 25.883888 C 148.029907 25.957222 147.940277 26.015278 147.836395 26.058056 C 147.732498 26.100834 147.621475 26.122223 147.503326 26.122223 C 147.385178 26.122223 147.276199 26.100834 147.176392 26.058056 C 147.076569 26.015278 146.987961 25.957222 146.910553 25.883888 C 146.833145 25.810555 146.773056 25.722963 146.73027 25.621111 C 146.6875 25.519258 146.666107 25.40926 146.666107 25.291111 Z"/>
    </g>
</svg>
